<svg width="22" height="22" viewBox="0 0 22 22" fill="none" xmlns="http://www.w3.org/2000/svg">
<path fill-rule="evenodd" clip-rule="evenodd" d="M6.56172 2.01229C6.40093 2.04119 6.20142 2.12589 6.03348 2.23655C5.9258 2.30752 5.80073 2.40889 5.62251 2.56966C5.43568 2.7382 5.31705 2.83783 5.19552 2.92833C4.16699 3.69407 3.44232 4.81077 3.15193 6.07747C3.04486 6.5445 3.0003 6.95462 3 7.47584C2.99981 7.8137 3.00673 7.94729 3.03917 8.23145C3.16996 9.37739 3.63439 10.7058 4.31374 11.8771C4.81093 12.7344 5.72317 13.9986 6.49168 14.8953C6.78813 15.2412 7.61359 16.1565 7.80353 16.3499C8.00787 16.5579 8.67115 17.1477 9.16294 17.5586C10.0172 18.2724 10.7466 18.756 11.578 19.1599C12.6682 19.6895 13.6498 19.9436 14.8068 19.996C14.9637 20.0031 14.9974 20.0019 15.1661 19.9836C15.2684 19.9725 15.4496 19.9535 15.5686 19.9414C16.0793 19.8896 16.3803 19.8302 16.7588 19.7064C17.2439 19.5478 17.6758 19.3238 18.1006 19.0106C18.5336 18.6914 18.9344 18.3495 19.5103 17.8081C19.8159 17.5208 19.8716 17.4538 19.9352 17.2969C19.9889 17.1647 20.0001 17.0985 20 16.9145C19.9999 16.7741 19.9968 16.734 19.9803 16.6584C19.893 16.2585 19.6809 15.9332 19.1869 15.4415C19.0347 15.2899 18.9274 15.1946 18.6156 14.9334C18.5014 14.8377 18.3533 14.7116 18.2867 14.6531C17.7927 14.2199 17.3847 13.9302 16.994 13.7352C16.5973 13.5372 16.2749 13.4487 15.9495 13.4483C15.7413 13.4481 15.5696 13.4793 15.3898 13.5501C15.1235 13.655 14.8952 13.8296 14.2025 14.4579C13.657 14.9528 13.4828 15.0893 13.2688 15.1894C13.1633 15.2388 13.0978 15.2606 12.9804 15.2856C12.865 15.3101 12.6333 15.3117 12.5043 15.2888C11.9808 15.1959 11.329 14.8145 10.6234 14.1881C10.4643 14.0469 9.93221 13.5253 9.76195 13.3437C9.27662 12.8261 8.86504 12.3287 8.47295 11.7862C7.87139 10.9537 7.61702 10.4409 7.49103 9.80669C7.46959 9.69873 7.46725 9.66856 7.4668 9.49506C7.46625 9.2814 7.47369 9.22896 7.52691 9.07114C7.58691 8.89324 7.68335 8.7403 7.82961 8.59112C7.99106 8.42643 8.31188 8.1628 8.81236 7.78357C9.09299 7.57092 9.15307 7.52113 9.27114 7.40342C9.54163 7.13375 9.71041 6.8287 9.77477 6.49314C9.80084 6.35725 9.80293 6.06656 9.77889 5.92194C9.72723 5.6113 9.62588 5.328 9.41846 4.91447C9.29557 4.66945 9.18944 4.48264 8.95286 4.09483C8.62958 3.56492 8.45401 3.29714 8.27487 3.06069C8.04788 2.7611 7.79663 2.49551 7.57451 2.32035C7.36939 2.1586 7.1373 2.04745 6.93064 2.01197C6.8369 1.99588 6.65213 1.99604 6.56172 2.01229Z" fill="#FD893A"/>
</svg>
