<svg width="22" height="22" viewBox="0 0 22 22" fill="none" xmlns="http://www.w3.org/2000/svg">
<path fill-rule="evenodd" clip-rule="evenodd" d="M10.2697 2.00854C9.48557 2.14659 9.09305 2.27076 8.60593 2.53485C7.72847 3.01059 6.95426 3.83061 6.58907 4.67105C6.2147 5.53266 6.1546 6.6403 6.43288 7.55093C6.87748 9.00601 8.22068 10.2178 9.76355 10.5557C11.4836 10.9325 13.2128 10.4252 14.3427 9.21245C15.0048 8.50178 15.3233 7.8639 15.4626 6.96985C15.6857 5.53773 15.1822 4.17954 14.0526 3.16583C13.4516 2.62655 12.787 2.28541 11.9569 2.09017C11.7099 2.03206 11.4949 2.01262 11.0008 2.00364C10.6503 1.99727 10.3213 1.99949 10.2697 2.00854ZM6.5391 10.7418C5.61049 10.8976 4.86617 11.328 4.30845 12.0317C3.49829 13.0539 3.05976 14.5479 3.00843 16.4607C2.99107 17.1076 2.99857 17.3144 3.04926 17.5868C3.26691 18.7566 4.11352 19.6025 5.38182 19.9175L5.71424 20H11.0008H16.2874L16.6249 19.9196C17.7384 19.6544 18.5543 18.9309 18.8773 17.9222C18.9693 17.6349 18.9805 17.5382 18.9966 16.8885C19.0374 15.2538 18.7083 13.6889 18.1018 12.6332C17.469 11.5319 16.6257 10.9312 15.4466 10.7419C14.6952 10.6213 14.5914 10.6476 13.7105 11.1819C13.4162 11.3604 13.0405 11.5656 12.8755 11.6379C11.7471 12.1326 10.7157 12.1893 9.60649 11.8176C9.08638 11.6433 8.97742 11.5905 8.31086 11.1902C7.56113 10.74 7.42904 10.6852 7.1015 10.6887C6.95715 10.6902 6.70407 10.7142 6.5391 10.7418Z" fill="#FD893A"/>
</svg>
