<svg width="55" height="55" viewBox="0 0 55 55" fill="none" xmlns="http://www.w3.org/2000/svg">
<path fill-rule="evenodd" clip-rule="evenodd" d="M16.5062 0.0382215C16.5062 0.0768648 18.0366 3.79151 19.1047 6.34526C19.3071 6.82925 20.1598 8.87811 20.9995 10.8983C21.8393 12.9184 23.3596 16.5685 24.378 19.0095C25.3964 21.4506 26.492 24.0777 26.8127 24.8476C27.1333 25.6174 27.4271 26.2482 27.4654 26.2494C27.5037 26.2504 27.8011 25.6205 28.1263 24.8496C29.5377 21.503 33.3931 12.2486 34.7673 8.90872C35.8626 6.24654 37.7958 1.56559 38.0997 0.840241C38.2837 0.400856 38.4237 0.0307226 38.4108 0.0177905C38.3979 0.00478187 37.9728 0.180551 37.466 0.408278C34.7265 1.63958 31.6919 2.47825 28.9665 2.75725C27.7867 2.878 25.8177 2.80416 24.6096 2.59388C22.0985 2.15679 18.9028 1.15375 17.0242 0.212919C16.5703 -0.0143494 16.5062 -0.0360041 16.5062 0.0382215ZM0 16.4367C0 16.4715 0.184242 16.8926 0.409368 17.3722C1.52544 19.7496 2.36825 22.6513 2.71855 25.3225C2.87169 26.4908 2.8318 28.8148 2.6403 29.8755C2.16529 32.507 1.35725 35.1159 0.332875 37.326C0.148709 37.7234 0.0103164 38.0609 0.0253707 38.076C0.0507412 38.1014 2.40845 37.152 9.32293 34.3321C10.815 33.7236 13.2737 32.7211 14.7868 32.1044C16.2998 31.4877 17.6926 30.9154 17.8817 30.8327C18.1964 30.695 24.2787 28.2013 25.8482 27.5665C26.216 27.4178 26.5169 27.2705 26.5169 27.2394C26.5169 27.1897 24.4798 26.3374 19.3718 24.2496C18.5733 23.9232 16.596 23.1147 14.9778 22.453C11.8708 21.1823 0.666972 16.6322 0.171939 16.4401C0.0773345 16.4034 0 16.4018 0 16.4367ZM52.6898 17.3177C51.513 17.7932 49.4154 18.6386 48.0284 19.1962C45.5872 20.1775 42.8017 21.308 38.5908 23.0263C37.477 23.4807 35.7404 24.1879 34.7317 24.5979C33.723 25.0078 32.1928 25.6333 31.3312 25.9879C30.4696 26.3426 29.4637 26.756 29.0959 26.9067C28.7282 27.0575 28.4273 27.2055 28.4273 27.2356C28.4273 27.2656 28.7282 27.4142 29.0959 27.5658C39.0842 31.6807 42.0664 32.9052 49.2511 35.8418C51.4786 36.7522 53.6746 37.6523 54.1309 37.8421C54.5873 38.0318 54.9766 38.1711 54.996 38.1517C55.0154 38.1323 54.9629 37.9822 54.8794 37.8182C54.5547 37.181 53.8353 35.4151 53.5142 34.4668C52.4553 31.3407 52.0025 28.5108 52.1889 26.185C52.4255 23.2334 53.4626 19.541 54.8004 16.8871C54.9443 16.6018 54.9887 16.4473 54.9261 16.4497C54.873 16.4516 53.8667 16.8423 52.6898 17.3177ZM27.4134 28.2046C27.3462 28.3186 25.1905 33.5408 22.2382 40.7416C21.2201 43.2247 20.2035 45.704 19.979 46.2511C18.2969 50.3513 16.4508 54.9011 16.4633 54.9159C16.4716 54.9258 16.8953 54.7451 17.4049 54.5144C20.0215 53.3298 23.0595 52.4857 25.8231 52.1752C26.9676 52.0467 29.2988 52.1231 30.4524 52.327C32.9659 52.7714 35.6817 53.6189 38.0039 54.6837C38.4165 54.8729 38.7672 55.0147 38.7832 54.9988C38.8107 54.9712 37.0763 50.8072 34.1195 43.8024C33.3733 42.0348 32.5826 40.1581 32.3623 39.632C32.1419 39.1059 31.5755 37.763 31.1035 36.6477C30.6315 35.5324 29.9258 33.8623 29.5354 32.9364C27.3767 27.8173 27.4912 28.0725 27.4134 28.2046Z" fill="black"/>
<path fill-rule="evenodd" clip-rule="evenodd" d="M15.3154 0.47191C14.5659 2.73587 12.9752 5.71599 11.3227 7.95186C10.7435 8.73559 8.657 10.8011 7.90902 11.3312C5.80242 12.8242 3.12903 14.2389 0.898637 15.041C0.447315 15.2034 0.0776842 15.3588 0.0771492 15.3864C0.0766143 15.4141 0.342777 15.5468 0.668468 15.6814C0.994159 15.8159 2.36111 16.3823 3.70606 16.9399C5.05101 17.4976 7.21744 18.3933 8.52036 18.9302C9.82328 19.4672 11.1644 20.0218 11.5006 20.1626C11.8369 20.3035 13.5047 20.9893 15.2069 21.6869C16.9091 22.3844 18.5425 23.0562 18.8367 23.1797C21.4067 24.2585 26.4738 26.3089 26.5015 26.2812C26.5545 26.2281 23 17.7118 17.3502 4.35536C16.7537 2.94546 16.1049 1.40524 15.9083 0.932644C15.7116 0.460126 15.5278 0.0726985 15.4996 0.0717803C15.4714 0.0709385 15.3886 0.250993 15.3154 0.47191ZM38.5352 2.07572C38.0711 3.18222 36.7283 6.37744 35.5511 9.1762C34.374 11.975 32.7326 15.8833 31.9036 17.8614C31.0746 19.8394 29.9847 22.4393 29.4814 23.6387C28.4587 26.0771 28.3964 26.2352 28.4409 26.2798C28.4582 26.2971 29.021 26.0867 29.6915 25.8122C30.3621 25.5376 31.5469 25.053 32.3244 24.7353C35.639 23.3809 42.1434 20.7007 44.7422 19.6184C45.0785 19.4783 46.7979 18.7646 48.5631 18.0323C50.3284 17.3 52.469 16.4118 53.3201 16.0584C54.1712 15.7052 54.8676 15.3901 54.8676 15.3584C54.8676 15.3268 54.773 15.2777 54.6574 15.2495C54.5418 15.2212 53.9314 14.9924 53.301 14.7409C50.1368 13.479 47.1223 11.6211 45.1923 9.74315C43.2127 7.81719 41.2096 4.59403 39.8939 1.21799C39.6725 0.649822 39.4661 0.157714 39.4352 0.124427C39.4043 0.0910639 38.9993 0.969145 38.5352 2.07572ZM25.9053 28.3781C25.4074 28.5922 24.8408 28.8256 19.9448 30.8345C18.4948 31.4294 16.655 32.1856 15.8564 32.515C15.0579 32.8445 13.7339 33.3892 12.9144 33.7256C12.0948 34.062 10.427 34.7497 9.20812 35.2537C7.98926 35.7578 5.80563 36.6608 4.35561 37.2604C2.90559 37.8601 1.37533 38.4891 0.955034 38.6582C0.0562114 39.0198 -0.0068325 39.0641 0.236557 39.164C0.337505 39.2055 0.918735 39.4353 1.52816 39.6747C3.94731 40.6252 6.76414 42.2113 8.48215 43.5903C9.14806 44.1248 10.5104 45.5022 11.0757 46.2125C12.685 48.2345 14.3127 51.1996 15.2446 53.8072C15.3613 54.1334 15.4778 54.3994 15.5037 54.3984C15.5296 54.3974 15.7984 53.8035 16.1012 53.0784C16.404 52.3535 17.5313 49.677 18.6064 47.1308C19.6816 44.5845 20.9009 41.692 21.316 40.703C21.7311 39.7139 22.3538 38.2332 22.6997 37.4125C24.3039 33.6066 26.5167 28.2763 26.5167 28.2181C26.5167 28.1252 26.4586 28.1404 25.9053 28.3781ZM28.4271 28.2306C28.4271 28.273 29.1366 30.0033 30.0039 32.0758C30.8711 34.1482 31.847 36.4809 32.1725 37.2595C34.5487 42.9432 39.2309 54.0152 39.362 54.2606C39.4487 54.4228 39.4563 54.4178 39.5656 54.1277C41.3494 49.3944 43.6326 45.8864 46.393 43.6377C48.2579 42.1185 51.2674 40.4568 53.9888 39.4436C54.409 39.2871 54.7813 39.1319 54.816 39.0988C54.8507 39.0657 54.6271 38.9344 54.3193 38.8071C54.0114 38.6798 52.47 38.0416 50.8938 37.389C46.166 35.431 38.25 32.1682 34.4259 30.6009C32.4505 29.7914 30.306 28.9096 29.6604 28.6413C29.0148 28.373 28.4731 28.1535 28.4568 28.1535C28.4405 28.1535 28.4271 28.1881 28.4271 28.2306Z" fill="#FD893A"/>
</svg>
