<svg width="144" height="144" viewBox="0 0 144 144" fill="none" xmlns="http://www.w3.org/2000/svg">
<path d="M78.6383 75.0798L53.1915 51.5158L58.5851 35.021H112.66L124 68.1492L71.4468 115L20 68.1492L30.5106 35.021H43.234" stroke="#FD893A" stroke-width="5" stroke-miterlimit="10"/>
<path d="M89.1485 35.2981L80.8506 51.5156" stroke="#FD893A" stroke-width="5" stroke-miterlimit="10"/>
<path d="M20 68.1492H43.0958" stroke="#FD893A" stroke-width="5" stroke-miterlimit="10"/>
<path d="M84.9181 77.1679C84.9181 79.668 82.8968 81.689 80.4107 81.689C77.9245 81.689 75.9033 79.668 75.9033 77.1679C75.9033 74.6679 77.9245 72.647 80.4107 72.647C82.8968 72.647 84.9181 74.6679 84.9181 77.1679Z" stroke="#FD893A" stroke-width="3"/>
<path d="M50.8761 35.021C50.8761 37.5211 48.8548 39.542 46.3687 39.542C43.8825 39.542 41.8613 37.5211 41.8613 35.021C41.8613 32.5209 43.8825 30.5 46.3687 30.5C48.8548 30.5 50.8761 32.5209 50.8761 35.021Z" stroke="#FD893A" stroke-width="3"/>
<path d="M83.4149 54.5893C83.4149 57.0873 81.395 59.1086 78.9081 59.1086C76.4212 59.1086 74.4014 57.0874 74.4014 54.5893C74.4014 52.0912 76.4212 50.0701 78.9081 50.0701C81.395 50.0701 83.4149 52.0913 83.4149 54.5893Z" stroke="#FD893A" stroke-width="2"/>
<path d="M84.3081 103.495L55.957 78.9609" stroke="#FD893A" stroke-width="5" stroke-miterlimit="10"/>
<path d="M108.925 80.9014L94.6807 68.7036H108.925" stroke="#FD893A" stroke-width="5" stroke-miterlimit="10"/>
</svg>
