<svg width="144" height="144" viewBox="0 0 144 144" fill="none" xmlns="http://www.w3.org/2000/svg">
<path d="M106.738 65.8609L69.9087 59.6484L70.6705 54.0094L107.5 60.2219L106.738 65.8609Z" fill="#FD893A"/>
<path d="M61.9094 56.3033C60.8619 50.1864 64.8615 44.3562 70.9562 43.3049C77.0509 42.2535 82.8599 46.2677 83.9074 52.3846C84.9549 58.5015 80.9553 64.3317 74.8606 65.3831C68.7659 66.4344 62.9569 62.4202 61.9094 56.3033Z" fill="#FD893A"/>
<path d="M83.2409 120.244L80.5744 126.361C79.0508 129.802 75.7177 132 72.0038 132C68.5755 132 65.3377 130.089 63.7188 127.03L60.1953 120.244" fill="#FD893A"/>
<path d="M90.9544 100.938H51.4342V97.7835C51.4342 92.5268 49.2439 87.6524 45.3395 84.4984C34.8642 75.9921 29.1504 62.8025 30.1027 49.2306C31.5312 28.8728 48.0059 12.4336 68.1946 11L68.5755 16.7346C51.1485 17.9771 36.9593 32.1224 35.7213 49.6129C34.8642 61.2733 39.8161 72.6469 48.863 80.0063C53.434 83.7338 56.3861 89.1816 56.9575 95.203H85.3359C86.0025 89.2772 89.0498 83.7338 93.8113 79.7196L97.43 84.1161C93.2399 87.5568 90.8592 92.5268 90.8592 97.688V100.938H90.9544Z" fill="#FD893A"/>
<path d="M86.669 111.929H55.8147C51.1484 111.929 47.4344 108.106 47.4344 103.518C47.4344 98.8348 51.2436 95.1073 55.8147 95.1073H86.669C91.3353 95.1073 95.0492 98.8348 95.0492 103.518C95.0492 108.201 91.3353 111.929 86.669 111.929ZM55.8147 100.842C54.3862 100.842 53.1482 102.084 53.1482 103.518C53.1482 104.952 54.3862 106.194 55.8147 106.194H86.669C88.0975 106.194 89.3355 104.952 89.3355 103.518C89.3355 102.084 88.0975 100.842 86.669 100.842H55.8147Z" fill="#FD893A"/>
<path d="M86.669 123.111H55.8147C51.1484 123.111 47.4344 119.288 47.4344 114.701C47.4344 110.113 51.2436 106.29 55.8147 106.29H86.669C91.3353 106.29 95.0492 110.017 95.0492 114.701C95.0492 119.384 91.3353 123.111 86.669 123.111ZM55.8147 111.929C54.3862 111.929 53.1482 113.171 53.1482 114.605C53.1482 116.039 54.3862 117.281 55.8147 117.281H86.669C88.0975 117.281 89.3355 116.039 89.3355 114.605C89.3355 113.171 88.0975 111.929 86.669 111.929H55.8147Z" fill="#FD893A"/>
<circle cx="113.5" cy="64.5" r="8.5" stroke="#FD893A" stroke-width="4"/>
<circle cx="92" cy="26" r="11" stroke="#FD893A" stroke-width="4"/>
<rect x="85.2949" y="32.3562" width="5" height="17.3744" transform="rotate(32.8303 85.2949 32.3562)" fill="#FD893A"/>
</svg>
