<svg width="29" height="22" viewBox="0 0 29 22" fill="none" xmlns="http://www.w3.org/2000/svg">
<path fill-rule="evenodd" clip-rule="evenodd" d="M27.8521 0.041457C27.7823 0.0642999 27.6702 0.100997 27.6029 0.123032C27.5355 0.14505 27.4213 0.182391 27.3491 0.205976C27.177 0.262135 26.8899 0.357927 26.8098 0.385883C26.7749 0.398055 26.6852 0.427776 26.6104 0.451938C26.4335 0.509087 26.1471 0.604615 26.0666 0.63333C26.0317 0.645765 25.8645 0.701347 25.695 0.75683C25.5255 0.812313 25.3583 0.867895 25.3234 0.880331C25.2885 0.892783 25.1784 0.930074 25.0787 0.963209C24.979 0.996343 24.8688 1.03337 24.8339 1.04546C24.799 1.05755 24.6889 1.09458 24.5892 1.12771C24.4895 1.16085 24.3794 1.19796 24.3445 1.21018C24.3096 1.2224 24.1995 1.25951 24.0998 1.29264C24.0001 1.32578 23.89 1.36289 23.8551 1.37511C23.8202 1.38733 23.7141 1.42314 23.6194 1.4547C23.5247 1.48627 23.3351 1.54997 23.198 1.59626C23.0609 1.64256 22.8406 1.71686 22.7085 1.76138C22.5764 1.80589 22.367 1.87691 22.2432 1.91922C22.1194 1.9615 21.9807 2.00747 21.935 2.02134C21.8894 2.03521 21.8276 2.05642 21.7976 2.06846C21.7677 2.08049 21.6533 2.11997 21.5434 2.15619C21.4335 2.19243 21.3233 2.22972 21.2987 2.23908C21.274 2.24844 21.1639 2.28555 21.054 2.32155C20.944 2.35754 20.8339 2.39465 20.8092 2.40402C20.7846 2.41337 20.6745 2.45048 20.5645 2.48648C20.4546 2.52247 20.3445 2.55935 20.3198 2.56842C20.2951 2.57751 20.1934 2.61203 20.0937 2.64513C19.994 2.67825 19.8839 2.71542 19.849 2.72776C19.8141 2.7401 19.704 2.7773 19.6043 2.81044C19.3763 2.88623 19.3242 2.90394 19.1783 2.95523C19.1135 2.97801 18.9789 3.02388 18.8792 3.05716C18.7795 3.09043 18.6694 3.12765 18.6345 3.13987C18.5996 3.15209 18.4894 3.1892 18.3897 3.22234C18.29 3.25547 18.1799 3.29273 18.145 3.30512C18.1101 3.3175 17.947 3.37312 17.7825 3.42872C17.618 3.48432 17.4548 3.53983 17.4199 3.5521C17.3851 3.56437 17.2749 3.60153 17.1752 3.63467C17.0755 3.6678 16.9654 3.70491 16.9305 3.71713C16.8956 3.72935 16.7855 3.76646 16.6858 3.7996C16.5861 3.83273 16.476 3.87011 16.4411 3.88264C16.3654 3.90984 16.2075 3.96367 15.9607 4.04645C15.861 4.07988 15.7509 4.11724 15.716 4.12946C15.6811 4.14168 15.571 4.17879 15.4713 4.21193C15.3716 4.24506 15.2615 4.28227 15.2266 4.29461C15.1917 4.30694 15.0815 4.34427 14.9818 4.37753C14.8821 4.41082 14.7516 4.45532 14.6918 4.47643C14.632 4.49752 14.4689 4.55305 14.3293 4.5998C13.9117 4.73966 13.5927 4.84782 13.4773 4.88866C13.4175 4.90983 13.2564 4.96482 13.1193 5.01084C12.5986 5.18565 12.368 5.26374 12.2628 5.30089C12.203 5.32201 12.0724 5.36638 11.9727 5.39948C11.873 5.4326 11.7629 5.46969 11.728 5.48193C11.6931 5.49415 11.53 5.54978 11.3655 5.60555C11.201 5.66131 11.0378 5.71697 11.0029 5.72923C10.9681 5.74148 10.8579 5.77863 10.7582 5.81176C10.5516 5.88046 10.4968 5.89914 10.3322 5.95698C10.2674 5.97976 10.1328 6.02563 10.0331 6.05891C9.93345 6.09218 9.82332 6.12945 9.78843 6.14172C9.75353 6.15399 9.61078 6.20227 9.4712 6.24899C9.33162 6.2957 9.16848 6.35122 9.10866 6.37233C9.04884 6.39346 8.91833 6.43796 8.81863 6.47124C8.71893 6.50451 8.60881 6.54188 8.57391 6.55427C8.53902 6.56665 8.37587 6.62227 8.21137 6.67787C8.04687 6.73346 7.88372 6.78898 7.84883 6.80125C7.81393 6.81352 7.70381 6.85068 7.60411 6.88381C7.39746 6.95251 7.34265 6.9712 7.17812 7.02904C7.11332 7.05181 6.97872 7.09768 6.87903 7.13096C6.77933 7.16423 6.6692 7.20155 6.63431 7.21389C6.59942 7.22623 6.48929 7.26368 6.38959 7.29712C6.15449 7.37597 5.98837 7.43254 5.90922 7.46071C5.87433 7.47313 5.76421 7.51041 5.66451 7.54354C5.56481 7.57667 5.45469 7.61415 5.41979 7.6268C5.3849 7.63945 5.22175 7.69496 5.05725 7.75018C4.89275 7.80538 4.7296 7.86079 4.69471 7.8733C4.65981 7.88581 4.55377 7.92201 4.45906 7.95374C4.36434 7.98547 4.11963 8.06832 3.91524 8.13787C3.71086 8.20741 3.43351 8.30127 3.29892 8.34646C3.16433 8.39163 3.00526 8.44591 2.94544 8.46709C2.88562 8.48825 2.72248 8.5439 2.5829 8.59077C2.44332 8.63763 2.28018 8.69324 2.22036 8.71435C2.16054 8.73548 2.03002 8.77998 1.93032 8.81326C1.83062 8.84653 1.7205 8.8839 1.68561 8.89629C1.65071 8.90868 1.48757 8.96429 1.32306 9.01989C1.15856 9.07549 0.995416 9.13112 0.960521 9.14354C0.925627 9.15594 0.82774 9.18942 0.742996 9.21792C0.246023 9.38508 0.000672295 9.66475 1.59177e-06 10.0648C-0.000433459 10.3212 0.0882988 10.5202 0.280428 10.6939C0.426768 10.8263 0.514884 10.8677 0.842695 10.9584C1.12687 11.037 1.33282 11.0953 1.42276 11.1225C1.46264 11.1346 1.56869 11.1647 1.65842 11.1893C1.74814 11.214 1.90721 11.2587 2.01189 11.2886C2.11658 11.3185 2.31235 11.3737 2.44694 11.4112C2.58154 11.4487 2.71205 11.4859 2.73698 11.4939C2.7619 11.5018 2.89242 11.5389 3.02701 11.5763C3.16161 11.6137 3.29212 11.6508 3.31705 11.6588C3.34197 11.6668 3.47249 11.7042 3.60708 11.7419C4.06082 11.8692 4.14169 11.892 4.18715 11.9058C4.21207 11.9134 4.30588 11.9397 4.39561 11.9643C4.48534 11.9888 4.61586 12.0256 4.68564 12.0461C4.75543 12.0666 4.88595 12.1039 4.97568 12.129C5.06541 12.1541 5.17145 12.1843 5.21133 12.1962C5.25121 12.2081 5.38173 12.2448 5.50136 12.2779C5.621 12.311 5.75152 12.3481 5.7914 12.3604C5.83128 12.3726 5.96179 12.4098 6.08143 12.4428C6.20107 12.4759 6.33159 12.513 6.37147 12.5253C6.41135 12.5376 6.54186 12.5747 6.6615 12.6079C6.78114 12.641 6.93613 12.6848 7.00592 12.7052C7.07571 12.7256 7.17258 12.7527 7.22119 12.7654C7.26979 12.7781 7.31199 12.796 7.31495 12.8051C7.3179 12.8141 7.56264 13.4895 7.85881 14.3059C8.15498 15.1223 8.53974 16.1837 8.71383 16.6645C8.88795 17.1452 9.04127 17.5646 9.05453 17.5963C9.06782 17.6281 9.28 18.2107 9.52606 18.891C9.77211 19.5714 9.99896 20.1763 10.0302 20.2352C10.0987 20.3648 10.3174 20.5717 10.4456 20.6284C10.6163 20.7037 10.7621 20.7314 10.9939 20.7324C11.1716 20.7332 11.2313 20.7269 11.32 20.6982C11.4448 20.6578 11.6396 20.5553 11.719 20.4883C11.8124 20.4093 12.0748 20.1853 12.2363 20.0466C12.3215 19.9734 12.448 19.8654 12.5174 19.8064C12.5869 19.7474 12.7782 19.5842 12.9427 19.4435C13.1071 19.3029 13.3068 19.1322 13.3864 19.0642C13.466 18.9962 13.5995 18.8811 13.6831 18.8086C13.7668 18.736 13.8447 18.6692 13.8564 18.6601C13.892 18.6324 14.0974 18.4581 14.4018 18.1974C14.5613 18.0608 14.8305 17.8308 15 17.6862C15.1695 17.5416 15.3446 17.3922 15.3891 17.3542L15.4701 17.2851L15.5885 17.3616C15.6536 17.4037 15.8007 17.5019 15.9154 17.58C16.03 17.6581 16.2217 17.7864 16.3414 17.8652C16.461 17.9439 16.7424 18.131 16.9668 18.2808C17.1911 18.4306 17.4996 18.6366 17.6523 18.7386C17.8051 18.8406 18.0751 19.0205 18.2524 19.1384C18.5815 19.3574 19.009 19.6425 19.6224 20.0522C19.8118 20.1788 20.1136 20.3798 20.2931 20.4989C20.4726 20.6181 20.7744 20.8193 20.9638 20.9461C21.1532 21.0729 21.4509 21.271 21.6253 21.3863C21.7997 21.5016 22.0132 21.6443 22.0998 21.7035C22.2697 21.8195 22.4182 21.8928 22.6043 21.9523C22.7502 21.9989 23.1546 22.0156 23.3566 21.9833C23.6659 21.9339 23.9357 21.7885 24.1041 21.5807C24.2753 21.3693 24.3382 21.2157 24.4437 20.7506C24.4689 20.6395 24.5099 20.4595 24.5348 20.3507C24.5598 20.2418 24.6008 20.0618 24.626 19.9507C24.6512 19.8396 24.6794 19.719 24.6887 19.6827C24.6979 19.6464 24.718 19.5611 24.7333 19.493C24.7486 19.425 24.7742 19.3137 24.7901 19.2456C24.8385 19.0387 24.9235 18.6692 24.9608 18.5034C24.9802 18.4173 25.021 18.2391 25.0515 18.1076C25.0819 17.9761 25.1227 17.7979 25.142 17.7118C25.1614 17.6256 25.1899 17.5031 25.2055 17.4396C25.2211 17.3761 25.2422 17.2802 25.2523 17.2264C25.2625 17.1727 25.2749 17.1227 25.2799 17.1153C25.2848 17.108 25.2964 17.0629 25.3056 17.0152C25.3148 16.9674 25.335 16.8764 25.3506 16.8129C25.3662 16.7494 25.3947 16.6269 25.4141 16.5408C25.4334 16.4546 25.4742 16.2765 25.5046 16.1449C25.5351 16.0134 25.5759 15.8353 25.5953 15.7491C25.6147 15.6629 25.6554 15.4848 25.6859 15.3533C25.7164 15.2217 25.7584 15.0399 25.7792 14.9492C25.8001 14.8585 25.8285 14.736 25.8424 14.677C25.8563 14.6181 25.875 14.5364 25.8839 14.4956C25.8928 14.4548 25.9256 14.3138 25.9567 14.1822C25.9878 14.0507 26.0291 13.8726 26.0485 13.7864C26.0678 13.7002 26.1086 13.5221 26.1391 13.3906C26.1696 13.259 26.2103 13.0809 26.2297 12.9947C26.249 12.9086 26.2776 12.7861 26.2932 12.7226C26.3088 12.6591 26.3284 12.5737 26.3368 12.5329C26.3452 12.4921 26.3688 12.3882 26.3891 12.302C26.4095 12.2158 26.43 12.1268 26.4347 12.1041C26.4394 12.0814 26.4689 11.9553 26.5002 11.8237C26.5315 11.6922 26.573 11.5141 26.5924 11.4279C26.6117 11.3417 26.6524 11.1636 26.6829 11.0321C26.7134 10.9005 26.7541 10.7224 26.7735 10.6362C26.7928 10.55 26.8214 10.4276 26.837 10.3641C26.8526 10.3006 26.8725 10.2152 26.8812 10.1744C26.8899 10.1336 26.9109 10.0408 26.928 9.96824C26.945 9.89567 26.9653 9.80661 26.9729 9.77033C26.9806 9.73404 27.0208 9.55963 27.0621 9.38274C27.1502 9.00597 27.2219 8.69545 27.2448 8.59107C27.2538 8.55025 27.2946 8.37212 27.3355 8.19523C27.3764 8.01834 27.4174 7.84022 27.4267 7.7994C27.436 7.75858 27.4563 7.67323 27.4719 7.60973C27.4875 7.54623 27.5079 7.45717 27.5171 7.41181C27.5263 7.36645 27.5466 7.27739 27.5621 7.21389C27.5777 7.15039 27.6062 7.02793 27.6256 6.94175C27.6449 6.85558 27.6857 6.67745 27.7162 6.54592C27.7467 6.41439 27.7792 6.27337 27.7883 6.23255C27.8382 6.00864 27.9356 5.59382 27.9437 5.5703C27.9489 5.55529 27.9608 5.50334 27.9701 5.45485C27.9794 5.40634 27.9997 5.31471 28.0153 5.25121C28.0309 5.18771 28.0594 5.06525 28.0788 4.97907C28.0981 4.8929 28.1388 4.71477 28.1691 4.58324C28.2502 4.2321 28.3105 3.96862 28.3504 3.79157C28.3698 3.70539 28.3984 3.58293 28.414 3.51943C28.4296 3.45593 28.4498 3.36491 28.459 3.31716C28.4682 3.26939 28.4798 3.22432 28.4847 3.21698C28.4897 3.20966 28.5021 3.15967 28.5123 3.1059C28.5224 3.05213 28.5435 2.95619 28.5591 2.89269C28.5747 2.82919 28.6032 2.70673 28.6226 2.62055C28.6419 2.53438 28.6827 2.35625 28.7131 2.22472C28.7436 2.09319 28.7844 1.91506 28.8039 1.82888C28.8536 1.60877 28.9265 1.29723 28.9603 1.16091C29.0803 0.676212 28.9318 0.358191 28.4681 0.107364C28.2507 -0.010282 28.0695 -0.0296614 27.8521 0.041457ZM23.6251 3.86494C23.7176 3.89493 23.7548 3.92821 23.7794 4.00278C23.813 4.1048 23.7808 4.1626 23.6131 4.30175C23.5318 4.36917 23.4082 4.47326 23.3384 4.53305C23.2687 4.59284 23.126 4.7121 23.0214 4.79804C22.9168 4.88401 22.7863 4.99273 22.7314 5.03967C22.6764 5.08659 22.6143 5.13854 22.5932 5.15512C22.5605 5.1809 22.2561 5.43298 22.198 5.48239C22.1872 5.49161 22.0478 5.60665 21.8883 5.73804C21.7288 5.8694 21.5894 5.98431 21.5785 5.9934C21.5677 6.00247 21.4828 6.07298 21.3898 6.15008C21.2968 6.22719 21.2119 6.2977 21.201 6.30677C21.1853 6.31996 20.8647 6.58461 20.7815 6.65313C20.7705 6.6622 20.689 6.72899 20.6005 6.80156C20.3887 6.97514 20.2047 7.12758 20.1934 7.13886C20.1884 7.14385 20.1068 7.21099 20.0121 7.28806C19.9174 7.36515 19.8073 7.45548 19.7674 7.48882C19.7275 7.52215 19.6777 7.56299 19.6567 7.57958C19.6249 7.60456 19.3292 7.84947 19.2614 7.9068C19.2506 7.91597 19.0337 8.09372 18.7795 8.3018C18.5252 8.50987 18.2805 8.71101 18.2357 8.74876C18.1908 8.78651 18.0559 8.89822 17.9358 8.997C17.8158 9.09576 17.6411 9.23966 17.5477 9.31677C17.3301 9.49631 17.3521 9.47832 17.2474 9.56304C17.1977 9.60325 17.0796 9.70028 16.9849 9.77869C16.8287 9.90791 16.7478 9.97433 16.4955 10.1801C16.4506 10.2167 16.3689 10.2842 16.3139 10.3301C16.125 10.4878 15.8699 10.6976 15.759 10.7864C15.6404 10.8813 14.5711 11.7588 14.5559 11.7736C14.5509 11.7785 14.4693 11.8456 14.3746 11.9227C14.2799 11.9998 14.1983 12.0668 14.1933 12.0716C14.1883 12.0763 14.0945 12.1538 13.9849 12.2436C13.8752 12.3335 13.712 12.4675 13.6223 12.5414C13.5326 12.6153 13.3694 12.7493 13.2598 12.8392C13.1501 12.9291 13.0318 13.0263 12.9969 13.0551C12.962 13.084 12.9163 13.1212 12.8954 13.1378C12.8477 13.1755 12.5748 13.3997 12.4176 13.5302C12.2765 13.6474 12.2171 13.6962 11.9546 13.911C11.845 14.0007 11.7511 14.0781 11.7462 14.0829C11.7364 14.0924 11.4139 14.3542 11.361 14.3956C11.3409 14.4113 11.3292 14.444 11.3292 14.4841C11.3292 14.5191 11.3214 14.6158 11.3119 14.699C11.2772 15.0015 11.2394 15.3494 11.2204 15.5429C11.2097 15.6518 11.1892 15.8447 11.175 15.9717C11.1608 16.0987 11.1403 16.2917 11.1296 16.4006C11.1188 16.5094 11.0985 16.7024 11.0844 16.8294C11.0703 16.9564 11.0498 17.1568 11.0388 17.2747C11.0279 17.3926 11.0114 17.5448 11.0022 17.6128C10.9931 17.6808 10.9763 17.8367 10.965 17.9592C10.9536 18.0816 10.9415 18.1846 10.9381 18.1881C10.9288 18.1973 10.903 18.1337 10.8485 17.9674C10.8217 17.8858 10.7808 17.7633 10.7576 17.6953C10.7061 17.5447 10.6434 17.3572 10.5782 17.1593C10.5513 17.0776 10.5185 16.9811 10.5054 16.9448C10.4923 16.9086 10.4632 16.8232 10.4409 16.7552C10.4186 16.6871 10.39 16.6018 10.3775 16.5655C10.365 16.5292 10.3339 16.4364 10.3084 16.3593C10.2829 16.2822 10.2296 16.1227 10.19 16.0047C10.1503 15.8868 10.076 15.6641 10.0247 15.5099C9.9734 15.3557 9.92449 15.211 9.91601 15.1883C9.90751 15.1656 9.87973 15.084 9.85427 15.0069C9.8288 14.9298 9.76999 14.7554 9.72357 14.6193C9.67715 14.4832 9.63275 14.3496 9.6249 14.3224C9.61705 14.2952 9.59702 14.2358 9.58042 14.1905C9.5638 14.1451 9.54331 14.0858 9.53492 14.0585C9.52651 14.0313 9.48576 13.9089 9.44434 13.7864C9.40294 13.6639 9.3624 13.5415 9.35427 13.5143C9.34615 13.4871 9.30152 13.3535 9.25509 13.2174C9.20867 13.0813 9.14954 12.9069 9.12369 12.8298C9.09784 12.7527 9.05676 12.6302 9.03242 12.5577C9.00806 12.4851 8.97229 12.3812 8.95291 12.3269C8.93355 12.2725 8.92396 12.2259 8.93161 12.2234C8.93926 12.2209 9.08419 12.1378 9.25368 12.0387C9.56788 11.8551 10.2022 11.4859 10.3316 11.4114C10.3916 11.3769 10.5859 11.2636 11.0393 10.9991C11.0782 10.9764 11.2498 10.8762 11.4207 10.7764C11.5916 10.6766 11.7506 10.5839 11.774 10.5702C11.9935 10.4427 12.596 10.0931 12.6411 10.0672C12.6726 10.0491 12.7391 10.0104 12.7888 9.98141C12.8384 9.95236 13.0382 9.83615 13.2326 9.72319C13.427 9.61021 13.7435 9.42616 13.9358 9.31419C14.1282 9.20222 14.2995 9.10318 14.3166 9.09411C14.3336 9.08504 14.4169 9.0364 14.5016 8.98604C14.6409 8.90317 15.0252 8.67921 15.2076 8.57457C15.2868 8.52914 15.8005 8.22964 15.9209 8.15868C15.9627 8.13404 16.0255 8.09855 16.0604 8.0798C16.0953 8.06106 16.287 7.95016 16.4864 7.83337C16.788 7.65672 17.4828 7.25258 17.7642 7.09019C17.8281 7.05331 18.5382 6.64074 18.6442 6.57891C18.7999 6.48809 19.6094 6.01931 19.664 5.9883C19.7408 5.94478 19.7221 5.95555 20.3791 5.57602C20.6508 5.41904 20.8895 5.28177 20.9094 5.27095C20.9294 5.26013 20.9701 5.23575 21.0001 5.21679C21.03 5.1978 21.2991 5.04257 21.5982 4.87182C21.8973 4.70108 22.1625 4.5486 22.1874 4.533C22.2282 4.50742 22.6156 4.28596 22.6913 4.24493C22.7083 4.23574 22.7466 4.21415 22.7765 4.19693C22.8064 4.17972 22.8594 4.1492 22.8943 4.12913C22.9292 4.10906 23.0596 4.03603 23.1841 3.96684C23.4293 3.83056 23.4818 3.81843 23.6251 3.86494Z" fill="white"/>
</svg>
