<svg width="28" height="28" viewBox="0 0 28 28" fill="none" xmlns="http://www.w3.org/2000/svg">
<path fill-rule="evenodd" clip-rule="evenodd" d="M12.6492 0.036613C9.28488 0.449192 6.49113 1.79432 4.19201 4.10873C1.45919 6.85961 0.0342737 10.4937 0.175678 14.3516C0.250921 16.4034 0.653456 18.0565 1.52919 19.91C1.69254 20.2557 1.82758 20.5685 1.82924 20.6051C1.83096 20.6417 1.42001 22.1782 0.916177 24.0197L0 27.3678L0.126157 27.6257C0.219631 27.8168 0.31516 27.9041 0.494948 27.9627C0.754354 28.0472 0.43873 28.1218 6.33209 26.584L7.63881 26.2431L8.3209 26.5449C10.1128 27.3375 11.6581 27.693 13.6191 27.7636C16.4136 27.8642 19.0617 27.1652 21.4232 25.7035C24.6615 23.6991 26.991 20.3712 27.725 16.7007C28.1303 14.6735 28.0855 12.3516 27.6045 10.4714C26.19 4.94143 21.5528 0.82617 15.9108 0.0939175C15.2033 0.00213781 13.2155 -0.0328008 12.6492 0.036613ZM10.4382 7.92649C10.6067 8.05877 10.7154 8.27435 11.1585 9.35566C11.3077 9.7196 11.5061 10.1923 11.5994 10.4061C11.9413 11.1894 11.8978 11.3812 11.1815 12.2483C10.6886 12.8451 10.6671 12.9689 10.9724 13.4525C11.5965 14.4406 12.553 15.4675 13.434 16.095C14.2331 16.6642 15.5647 17.304 15.797 17.2304C15.9673 17.1765 16.2642 16.8669 16.781 16.2044C17.0223 15.895 17.2504 15.6183 17.2879 15.5895C17.4607 15.4564 17.9561 15.6232 19.2454 16.2488C19.9929 16.6114 20.646 16.959 20.6968 17.0211C20.8233 17.1758 20.7586 17.9794 20.5824 18.4416C20.3896 18.9471 20.155 19.2198 19.603 19.5795C18.8831 20.0486 18.448 20.1747 17.5495 20.1747C16.9576 20.1747 16.6933 20.1417 16.244 20.0117C14.9998 19.6519 13.5655 18.9895 12.6367 18.3459C11.1092 17.2876 9.46758 15.5378 8.37639 13.8048C7.4803 12.3817 7.202 11.159 7.50503 9.97628C7.72293 9.12571 8.35358 8.21989 8.92397 7.93807C9.30868 7.74796 10.2022 7.74114 10.4382 7.92649Z" fill="white"/>
</svg>